HIERARCHY
ROOT Hips
{
  OFFSET 267.745 86.9975 -272.335
  CHANNELS 6 Xposition Yposition Zposition Zrotation Xrotation Yrotation
  JOINT LeftUpLeg
  {
    OFFSET 8.64259 1.95398 -2.38835
    CHANNELS 3 Zrotation Xrotation Yrotation
    JOINT LeftLeg
    {
      OFFSET 43.7702 0 0
      CHANNELS 3 Zrotation Xrotation Yrotation
      JOINT LeftFoot
      {
        OFFSET 40.6238 0 0
        CHANNELS 3 Zrotation Xrotation Yrotation
        JOINT LeftToeBase
        {
          OFFSET 12.7242 0 0
          CHANNELS 3 Zrotation Xrotation Yrotation
          End Site
          {
            OFFSET 0 0 0
          }
        }
      }
    }
  }
  JOINT RightUpLeg
  {
    OFFSET -8.2249 1.95398 -2.59336
    CHANNELS 3 Zrotation Xrotation Yrotation
    JOINT RightLeg
    {
      OFFSET 43.5653 0 0
      CHANNELS 3 Zrotation Xrotation Yrotation
      JOINT RightFoot
      {
        OFFSET 40.6238 0 0
        CHANNELS 3 Zrotation Xrotation Yrotation
        JOINT RightToeBase
        {
          OFFSET 12.7242 0 0
          CHANNELS 3 Zrotation Xrotation Yrotation
          End Site
          {
            OFFSET 0 0 0
          }
        }
      }
    }
  }
  JOINT Spine
  {
    OFFSET 0.165834 0.87714 6.61349
    CHANNELS 3 Zrotation Xrotation Yrotation
    JOINT Spine1
    {
      OFFSET 7.38963 1.71661e-005 0
      CHANNELS 3 Zrotation Xrotation Yrotation
      JOINT Spine2
      {
        OFFSET 11.9445 1.14441e-005 0
        CHANNELS 3 Zrotation Xrotation Yrotation
        JOINT Spine3
        {
          OFFSET 14.7254 4.19617e-005 0
          CHANNELS 3 Zrotation Xrotation Yrotation
          JOINT Spine4
          {
            OFFSET 10.9679 0 0
            CHANNELS 3 Zrotation Xrotation Yrotation
            JOINT RightShoulder
            {
              OFFSET 2.46616 -1.6653 3.69651
              CHANNELS 3 Zrotation Xrotation Yrotation
              JOINT RightArm
              {
                OFFSET 13.0012 0 0
                CHANNELS 3 Zrotation Xrotation Yrotation
                JOINT RightForeArm
                {
                  OFFSET 28.7848 1.52588e-005 0
                  CHANNELS 3 Zrotation Xrotation Yrotation
                  JOINT RightHand
                  {
                    OFFSET 26.5688 1.52588e-005 0
                    CHANNELS 3 Zrotation Xrotation Yrotation
                    End Site
                    {
                      OFFSET 0 0 0
                    }
                  }
                }
              }
            }
            JOINT LeftShoulder
            {
              OFFSET 2.38034 -1.29275 -3.7523
              CHANNELS 3 Zrotation Xrotation Yrotation
              JOINT LeftArm
              {
                OFFSET 16.3182 6.10352e-005 0
                CHANNELS 3 Zrotation Xrotation Yrotation
                JOINT LeftForeArm
                {
                  OFFSET 27.0901 0 0
                  CHANNELS 3 Zrotation Xrotation Yrotation
                  JOINT LeftHand
                  {
                    OFFSET 24.5451 1.52588e-005 0
                    CHANNELS 3 Zrotation Xrotation Yrotation
                    End Site
                    {
                      OFFSET 0 0 0
                    }
                  }
                }
              }
            }
            JOINT Neck
            {
              OFFSET 5.0226 -0.0266342 0
              CHANNELS 3 Zrotation Xrotation Yrotation
              JOINT Head
              {
                OFFSET 6.69364 2.86102e-005 0
                CHANNELS 3 Zrotation Xrotation Yrotation
                End Site
                {
                  OFFSET 0 0 0
                }
              }
            }
          }
        }
      }
    }
  }
}
MOTION
Frames:	6
Frame Time:	0.0416667
-302.379 62.7781 343.523 152.786 -27.7286 108.167 146.045 55.9731 10.9858 -89.3062 34.1932 -15.1099 -7.17062 -38.0788 -6.40554 135.643 -11.754 3.02536 168.832 34.3759 -25.244 -104.072 -35.9954 0.142382 63.2116 8.95695 -1.76389 -134.117 2.65304 27.4017 -11.6616 6.33431 -82.0591 15.7892 -19.0996 18.9658 4.10785 -18.2629 19.7706 -19.0324 -23.8526 12.2832 0.980288 -23.8526 12.2832 44.0675 -52.0029 -162.629 19.3308 25.7269 91.0819 140.851 -40.2952 -49.1582 1.92719 -1.45114 -63.4613 -121.269 -71.3373 45.605 -15.1345 -20.8431 16.1196 5.49443 39.6142 -0.00171896 41.1297 -12.1596 -34.0547 -72.2207 -9.89439 14.2274 74.3506 6.31338 11.5572 
-302.454 62.8645 343.61 152.54 -27.6913 108.334 145.691 55.8103 11.3929 -89.2889 34.2581 -14.9298 -7.91451 -38.1334 -7.01889 135.763 -12.0206 2.79417 167.725 34.2866 -24.4629 -103.788 -35.9921 0.628613 66.0336 6.77953 -1.32627 -134.214 -7.53031 28.0967 -11.6778 6.35397 -82.1027 15.7505 -19.1577 18.8759 4.07144 -18.3246 19.6838 -19.0853 -23.8813 12.1752 0.927404 -23.8813 12.1752 44.0507 -52.002 -162.65 19.2352 25.6671 91.1248 140.977 -40.2263 -49.0569 1.93524 -1.45214 -63.3714 -121.249 -71.353 45.6345 -15.2074 -20.6074 15.8632 5.36957 40.094 -0.00173102 41.7995 -12.3066 -33.9222 -72.2124 -9.71578 14.0988 74.4977 6.71379 11.9128 
-302.699 63.0507 343.879 151.837 -27.6007 108.825 144.732 55.3416 12.5404 -89.3642 34.4621 -14.4019 -9.90665 -38.2662 -8.71195 136.076 -12.7981 2.11854 164.504 33.9603 -22.1718 -102.76 -36.0177 2.02989 73.7968 0.987606 0.360643 -113.321 -62.6317 41.1514 -11.7228 6.41033 -82.2295 15.6388 -19.322 18.6134 3.96613 -18.4997 19.4305 -19.2377 -23.9604 11.8616 0.774941 -23.9604 11.8616 44.0044 -51.9964 -162.707 18.9612 25.4933 91.246 141.344 -40.0227 -48.7647 1.95375 -1.45465 -63.1108 -121.19 -71.3981 45.7218 -15.4114 -19.9191 15.1299 5.00436 41.4901 -0.00176781 43.7094 -12.6913 -33.4785 -72.1809 -9.19463 13.7299 74.9097 7.88333 12.9472 
-303.167 63.1704 344.349 150.748 -27.5138 109.624 143.437 54.615 14.2519 -89.7957 34.9215 -13.5712 -12.6667 -38.509 -11.2152 136.48 -14.0493 1.02626 159.689 33.2076 -18.6209 -100.637 -36.0998 4.23423 84.543 -6.2952 3.79527 47.3112 20.7634 163.089 -11.7877 6.49792 -82.4323 15.4621 -19.5701 18.1915 3.79963 -18.7651 19.0226 -19.4768 -24.0718 11.363 0.535867 -24.0718 11.363 43.9397 -51.9788 -162.794 18.5317 25.2149 91.4321 141.934 -39.6852 -48.2997 1.98029 -1.45699 -62.6929 -121.092 -71.469 45.8664 -15.7163 -18.7937 13.9824 4.40433 43.7406 -0.00183288 46.672 -13.1718 -32.589 -72.1072 -8.35375 13.1601 75.5168 9.76799 14.5966 
-303.871 63.1233 345.009 149.38 -27.5158 110.72 142.11 53.6845 16.3247 -91.1523 34.0927 -12.2547 -15.4988 -37.3007 -13.7394 136.852 -15.7147 -0.442897 154.475 31.8527 -14.4029 -97.4438 -36.1385 7.07575 95.5112 -12.56 8.45101 137.59 52.3688 74.5292 -11.8594 6.60955 -82.702 15.2316 -19.8696 17.6265 3.58209 -19.0879 18.4749 -19.785 -24.1896 10.7067 0.227646 -24.1896 10.7067 43.8705 -51.9382 -162.903 17.9713 24.8414 91.6681 142.733 -39.2104 -47.6797 2.00977 -1.45647 -62.1308 -120.95 -71.5624 46.0698 -16.0837 -17.232 12.4886 3.56344 46.747 -0.00193253 50.4292 -13.5377 -31.093 -71.9651 -7.21709 12.4415 76.2213 12.3037 16.7866 
-304.777 62.9575 345.829 147.877 -27.7101 112.104 140.955 52.5876 18.6097 -92.5985 34.2991 -10.932 -18.7033 -37.0113 -16.8457 137.072 -17.7053 -2.2346 150.005 29.9701 -10.119 -93.6948 -35.9911 10.2931 104.569 -16.7247 13.0887 143.144 13.1466 35.1846 -11.9218 6.73641 -83.0269 14.9605 -20.1804 16.9396 3.32576 -19.427 17.8066 -20.1407 -24.2815 9.92768 -0.128051 -24.2815 9.92769 43.8123 -51.8613 -163.024 17.3048 24.382 91.9389 143.724 -38.5926 -46.9236 2.03516 -1.44953 -61.4369 -120.762 -71.6756 46.3351 -16.4675 -15.2273 10.7184 2.46765 50.3281 -0.0020743 54.6346 -13.5518 -28.8979 -71.7271 -5.81057 11.6317 76.9034 15.4105 19.447 
